<svg id="svg" version="1.1" xmlns="http://www.w3.org/2000/svg" xmlns:xlink="http://www.w3.org/1999/xlink" width="400" height="400" viewBox="0, 0, 400,400"><g id="svgg"><path id="path0" d="M0.000 200.000 L 0.000 400.000 200.000 400.000 L 400.000 400.000 400.000 200.000 L 400.000 0.000 200.000 0.000 L 0.000 0.000 0.000 200.000 M141.795 54.800 C 154.538 75.964,166.305 91.125,183.322 108.300 C 191.236 116.288,190.254 115.899,194.282 112.647 C 202.231 106.229,212.260 99.498,221.600 94.313 C 227.662 90.947,240.266 84.805,241.128 84.798 C 241.278 84.796,241.910 84.529,242.532 84.205 C 245.267 82.778,258.929 78.063,261.200 77.762 C 265.031 77.254,264.353 79.099,259.489 82.422 C 248.125 90.183,237.294 98.731,227.800 107.432 C 218.479 115.975,206.584 128.461,206.924 129.347 C 207.537 130.944,227.975 145.510,246.872 157.818 C 254.506 162.790,254.478 163.000,244.800 173.173 C 234.220 184.296,233.634 184.279,217.800 172.368 C 209.142 165.856,202.505 160.205,193.876 152.000 C 192.372 150.570,190.988 149.400,190.800 149.400 C 190.239 149.400,184.415 157.840,177.051 169.323 C 175.269 172.102,171.079 179.084,169.684 181.600 C 169.135 182.590,167.659 185.200,166.403 187.400 C 165.148 189.600,163.248 193.020,162.181 195.000 C 157.891 202.957,157.322 202.924,146.814 194.119 C 135.206 184.391,135.082 183.559,143.312 170.616 C 152.278 156.518,161.512 144.503,171.705 133.672 C 174.168 131.056,174.404 130.667,173.930 130.013 C 173.639 129.610,172.256 127.778,170.858 125.940 C 162.327 114.729,152.684 98.121,147.435 85.600 C 146.374 83.070,145.279 80.460,145.000 79.800 C 144.722 79.140,144.275 77.970,144.007 77.200 C 143.739 76.430,143.364 75.440,143.173 75.000 C 142.016 72.324,137.816 58.661,137.025 55.000 C 136.883 54.340,136.591 52.992,136.377 52.004 C 135.257 46.830,137.781 48.132,141.795 54.800 " stroke="none" fill="#fbfbfb" fill-rule="evenodd"></path><path id="path1" d="M137.339 51.453 C 137.462 51.864,138.032 54.090,138.606 56.400 C 144.545 80.287,159.438 110.386,174.064 128.056 C 176.165 130.593,176.139 130.668,171.494 135.728 C 161.150 146.995,152.835 157.900,143.987 171.800 C 136.527 183.519,136.616 184.041,147.655 193.235 C 157.324 201.288,157.318 201.288,160.985 194.550 C 171.672 174.910,188.448 148.432,190.662 147.710 C 190.915 147.627,193.165 149.524,195.662 151.925 C 203.599 159.560,210.971 165.768,220.600 172.925 C 233.496 182.511,233.998 182.528,242.591 173.672 C 253.229 162.709,253.111 163.263,245.800 158.577 C 228.008 147.172,206.249 131.590,205.427 129.666 C 204.135 126.641,233.871 99.083,253.155 85.434 C 257.030 82.692,260.560 80.186,261.000 79.865 C 265.793 76.368,242.854 84.765,229.933 91.237 C 219.510 96.458,206.773 104.547,197.014 112.142 C 193.722 114.704,190.804 116.800,190.528 116.800 C 189.925 116.800,178.333 105.341,173.531 100.000 C 161.687 86.825,150.799 72.093,141.470 56.617 C 138.405 51.534,136.743 49.455,137.339 51.453 " stroke="none" fill="#e40817" fill-rule="evenodd"></path><path id="path2" d="M173.600 99.400 C 174.346 100.170,175.047 100.800,175.157 100.800 C 175.267 100.800,174.746 100.170,174.000 99.400 C 173.254 98.630,172.553 98.000,172.443 98.000 C 172.333 98.000,172.854 98.630,173.600 99.400 M182.794 108.900 C 187.806 114.009,188.400 114.581,188.400 114.294 C 188.400 114.236,185.925 111.761,182.900 108.794 L 177.400 103.400 182.794 108.900 M228.575 105.700 L 227.400 107.000 228.700 105.825 C 229.415 105.179,230.000 104.594,230.000 104.525 C 230.000 104.216,229.670 104.488,228.575 105.700 M222.985 110.900 L 221.000 113.000 223.100 111.015 C 225.051 109.171,225.383 108.800,225.085 108.800 C 225.022 108.800,224.077 109.745,222.985 110.900 M213.785 120.100 L 211.800 122.200 213.900 120.215 C 215.851 118.371,216.183 118.000,215.885 118.000 C 215.822 118.000,214.877 118.945,213.785 120.100 M170.175 136.100 L 169.000 137.400 170.300 136.225 C 171.015 135.579,171.600 134.994,171.600 134.925 C 171.600 134.616,171.270 134.888,170.175 136.100 M194.200 151.600 C 195.728 153.140,197.069 154.400,197.179 154.400 C 197.289 154.400,196.128 153.140,194.600 151.600 C 193.072 150.060,191.731 148.800,191.621 148.800 C 191.511 148.800,192.672 150.060,194.200 151.600 M199.200 156.125 C 199.200 156.194,199.785 156.779,200.500 157.425 L 201.800 158.600 200.625 157.300 C 199.530 156.088,199.200 155.816,199.200 156.125 M202.800 159.325 C 202.800 159.394,203.385 159.979,204.100 160.625 L 205.400 161.800 204.225 160.500 C 203.130 159.288,202.800 159.016,202.800 159.325 M248.185 168.500 L 246.200 170.600 248.300 168.615 C 250.251 166.771,250.583 166.400,250.285 166.400 C 250.222 166.400,249.277 167.345,248.185 168.500 M240.800 176.200 C 239.161 177.850,237.910 179.200,238.020 179.200 C 238.130 179.200,239.561 177.850,241.200 176.200 C 242.839 174.550,244.090 173.200,243.980 173.200 C 243.870 173.200,242.439 174.550,240.800 176.200 M138.093 182.400 C 138.093 183.170,138.175 183.485,138.276 183.100 C 138.376 182.715,138.376 182.085,138.276 181.700 C 138.175 181.315,138.093 181.630,138.093 182.400 " stroke="none" fill="#efa2a5" fill-rule="evenodd"></path><path id="path3" d="M136.828 50.671 C 136.844 51.072,137.026 51.760,137.234 52.200 C 137.547 52.862,137.575 52.810,137.399 51.900 C 137.103 50.382,137.764 50.523,138.800 52.200 C 140.036 54.200,140.280 53.937,139.079 51.900 C 138.011 50.089,136.780 49.417,136.828 50.671 M137.668 53.800 C 137.662 54.240,137.811 54.960,138.000 55.400 C 138.438 56.419,138.438 55.368,138.000 54.000 C 137.743 53.196,137.677 53.157,137.668 53.800 M140.076 54.200 C 140.719 55.532,145.777 63.662,146.080 63.849 C 146.478 64.096,140.920 54.852,140.277 54.200 C 140.014 53.933,139.947 53.933,140.076 54.200 M138.468 57.000 C 138.462 57.440,138.611 58.160,138.800 58.600 C 139.238 59.619,139.238 58.568,138.800 57.200 C 138.543 56.396,138.477 56.357,138.468 57.000 M139.214 59.757 C 139.174 60.794,144.471 76.725,145.280 78.000 C 145.566 78.452,145.594 78.402,145.392 77.800 C 145.244 77.360,143.796 73.040,142.175 68.200 C 140.554 63.360,139.221 59.561,139.214 59.757 M146.984 65.400 C 152.224 74.001,163.603 88.866,173.068 99.476 C 178.066 105.078,189.880 116.800,190.528 116.800 C 190.804 116.800,193.633 114.775,196.815 112.300 C 206.527 104.746,216.761 98.150,227.660 92.420 C 230.597 90.876,232.835 89.610,232.634 89.606 C 232.086 89.597,222.171 94.871,217.566 97.620 C 209.699 102.318,199.588 109.384,193.465 114.463 C 190.515 116.911,190.965 117.017,186.664 112.852 C 171.879 98.534,159.462 83.734,149.204 68.200 C 147.104 65.020,145.587 63.106,146.984 65.400 M255.800 80.164 C 252.940 81.122,249.340 82.384,247.800 82.968 C 246.260 83.552,244.749 84.117,244.443 84.224 C 244.136 84.331,243.970 84.503,244.073 84.606 C 244.176 84.710,246.047 84.098,248.230 83.248 C 257.142 79.778,263.387 78.123,261.000 79.865 C 260.560 80.186,257.030 82.692,253.155 85.434 C 233.897 99.065,204.172 126.606,205.416 129.666 C 205.841 130.711,226.400 146.170,226.400 145.444 C 226.400 145.332,225.185 144.384,223.700 143.337 C 212.598 135.512,205.347 129.577,205.837 128.718 C 206.396 127.738,218.038 115.243,220.455 113.029 C 221.635 111.948,223.860 109.867,225.400 108.403 C 233.277 100.916,246.786 90.088,256.600 83.395 C 264.706 77.866,264.549 77.232,255.800 80.164 M145.600 78.864 C 145.600 79.122,147.464 83.723,148.449 85.899 C 148.872 86.833,149.400 88.073,149.621 88.654 C 149.842 89.235,150.105 89.629,150.205 89.528 C 150.306 89.428,149.382 87.018,148.154 84.173 C 146.067 79.341,145.600 78.371,145.600 78.864 M241.600 85.478 C 240.830 85.814,239.770 86.255,239.245 86.456 C 238.719 86.658,238.378 86.911,238.486 87.019 C 238.594 87.127,239.834 86.685,241.241 86.037 C 243.847 84.838,244.152 84.361,241.600 85.478 M236.053 87.853 C 235.313 88.176,234.801 88.534,234.916 88.649 C 235.031 88.764,235.816 88.493,236.662 88.047 C 238.435 87.111,238.041 86.986,236.053 87.853 M151.206 91.710 C 151.158 94.054,163.477 114.452,171.463 125.254 C 175.715 131.004,175.703 130.963,173.758 132.822 C 165.652 140.568,146.224 166.072,141.247 175.500 C 140.157 177.565,141.252 176.151,143.416 172.700 C 151.950 159.093,161.074 147.078,171.494 135.728 C 176.137 130.671,176.163 130.595,174.074 128.056 C 168.000 120.671,160.122 108.375,154.047 96.800 C 152.488 93.830,151.210 91.539,151.206 91.710 M226.974 145.958 C 227.228 146.368,238.345 153.825,245.800 158.586 C 247.780 159.850,249.850 161.270,250.400 161.742 L 251.400 162.600 250.401 161.469 C 249.851 160.847,248.321 159.687,247.001 158.892 C 245.680 158.097,240.575 154.766,235.655 151.489 C 230.736 148.213,226.829 145.723,226.974 145.958 M189.742 148.500 C 186.145 152.560,167.949 180.800,168.930 180.800 C 169.043 180.800,170.717 178.145,172.651 174.900 C 178.254 165.498,189.341 148.855,190.464 148.161 C 190.694 148.018,192.169 149.157,193.741 150.691 C 205.940 162.592,227.033 179.170,231.511 180.376 C 235.007 181.317,237.153 180.012,243.991 172.781 C 250.558 165.837,251.616 164.531,251.546 163.445 L 251.491 162.600 251.324 163.449 C 251.108 164.552,248.662 167.415,242.591 173.672 C 233.998 182.528,233.496 182.511,220.600 172.925 C 210.980 165.775,203.598 159.560,195.683 151.945 C 190.686 147.138,190.859 147.239,189.742 148.500 M139.931 177.700 C 137.063 182.304,138.092 185.721,143.800 190.539 C 157.272 201.912,157.593 202.010,160.762 195.700 C 162.076 193.084,161.414 193.687,159.944 196.445 C 157.496 201.038,156.808 200.858,147.655 193.235 C 138.450 185.567,137.493 183.825,139.786 178.900 C 140.813 176.692,140.875 176.185,139.931 177.700 M165.679 186.100 C 162.404 191.897,161.515 193.600,161.762 193.600 C 161.862 193.600,163.121 191.459,164.560 188.843 C 165.999 186.226,167.560 183.436,168.028 182.643 C 168.496 181.849,168.782 181.200,168.663 181.200 C 168.544 181.200,167.201 183.405,165.679 186.100 " stroke="none" fill="#ec747c" fill-rule="evenodd"></path><path id="path4" d="M218.192 115.300 L 214.600 119.000 218.300 115.408 C 221.736 112.072,222.182 111.600,221.892 111.600 C 221.832 111.600,220.167 113.265,218.192 115.300 M173.200 133.000 C 172.228 133.990,171.523 134.800,171.633 134.800 C 171.743 134.800,172.628 133.990,173.600 133.000 C 174.572 132.010,175.277 131.200,175.167 131.200 C 175.057 131.200,174.172 132.010,173.200 133.000 M196.800 153.725 C 196.800 153.794,197.385 154.379,198.100 155.025 L 199.400 156.200 198.225 154.900 C 197.130 153.688,196.800 153.416,196.800 153.725 M244.581 172.100 L 243.000 173.800 244.700 172.219 C 246.281 170.748,246.584 170.400,246.281 170.400 C 246.216 170.400,245.451 171.165,244.581 172.100 " stroke="none" fill="#ec7e84" fill-rule="evenodd"></path><path id="path5" d="M183.000 108.800 C 185.633 111.440,187.877 113.600,187.987 113.600 C 188.097 113.600,186.033 111.440,183.400 108.800 C 180.767 106.160,178.523 104.000,178.413 104.000 C 178.303 104.000,180.367 106.160,183.000 108.800 M223.200 111.000 C 222.228 111.990,221.523 112.800,221.633 112.800 C 221.743 112.800,222.628 111.990,223.600 111.000 C 224.572 110.010,225.277 109.200,225.167 109.200 C 225.057 109.200,224.172 110.010,223.200 111.000 M214.000 120.200 C 213.028 121.190,212.323 122.000,212.433 122.000 C 212.543 122.000,213.428 121.190,214.400 120.200 C 215.372 119.210,216.077 118.400,215.967 118.400 C 215.857 118.400,214.972 119.210,214.000 120.200 M193.800 151.600 C 195.106 152.920,196.265 154.000,196.375 154.000 C 196.485 154.000,195.506 152.920,194.200 151.600 C 192.894 150.280,191.735 149.200,191.625 149.200 C 191.515 149.200,192.494 150.280,193.800 151.600 M248.975 168.100 L 247.800 169.400 249.100 168.225 C 249.815 167.579,250.400 166.994,250.400 166.925 C 250.400 166.616,250.070 166.888,248.975 168.100 M241.178 176.300 L 239.800 177.800 241.300 176.422 C 242.696 175.138,242.984 174.800,242.678 174.800 C 242.612 174.800,241.937 175.475,241.178 176.300 M232.500 181.076 C 232.885 181.176,233.515 181.176,233.900 181.076 C 234.285 180.975,233.970 180.893,233.200 180.893 C 232.430 180.893,232.115 180.975,232.500 181.076 " stroke="none" fill="#f4cdce" fill-rule="evenodd"></path><path id="path6" d="M138.000 49.654 C 138.330 49.954,138.859 50.470,139.175 50.800 C 139.621 51.265,139.614 51.180,139.141 50.422 C 138.806 49.884,138.277 49.368,137.966 49.276 C 137.510 49.141,137.517 49.215,138.000 49.654 M145.809 61.826 C 146.181 62.501,146.841 63.491,147.276 64.026 L 148.067 65.000 147.391 63.774 C 147.019 63.099,146.359 62.109,145.924 61.574 L 145.133 60.600 145.809 61.826 M152.000 71.200 C 152.896 72.520,153.720 73.600,153.830 73.600 C 153.940 73.600,153.296 72.520,152.400 71.200 C 151.504 69.880,150.680 68.800,150.570 68.800 C 150.460 68.800,151.104 69.880,152.000 71.200 M155.599 76.300 C 156.122 77.015,156.613 77.600,156.689 77.600 C 156.993 77.600,156.001 76.100,155.345 75.567 C 154.913 75.216,155.010 75.496,155.599 76.300 M159.191 81.188 C 159.657 81.841,160.242 82.502,160.491 82.656 C 160.741 82.811,160.441 82.276,159.825 81.468 C 158.488 79.715,157.984 79.492,159.191 81.188 M169.600 94.125 C 169.600 94.194,170.185 94.779,170.900 95.425 L 172.200 96.600 171.025 95.300 C 169.930 94.088,169.600 93.816,169.600 94.125 M152.400 96.153 C 152.400 96.582,153.590 98.800,153.821 98.800 C 153.931 98.800,153.723 98.215,153.359 97.500 C 152.617 96.040,152.400 95.736,152.400 96.153 M173.800 98.800 C 174.883 99.900,175.860 100.800,175.970 100.800 C 176.080 100.800,175.283 99.900,174.200 98.800 C 173.117 97.700,172.140 96.800,172.030 96.800 C 171.920 96.800,172.717 97.700,173.800 98.800 M235.375 100.500 L 234.200 101.800 235.500 100.625 C 236.215 99.979,236.800 99.394,236.800 99.325 C 236.800 99.016,236.470 99.288,235.375 100.500 M179.200 104.600 C 181.060 106.470,182.672 108.000,182.782 108.000 C 182.892 108.000,181.460 106.470,179.600 104.600 C 177.740 102.730,176.128 101.200,176.018 101.200 C 175.908 101.200,177.340 102.730,179.200 104.600 M206.200 103.835 L 205.000 104.866 206.300 104.006 C 207.015 103.533,207.600 103.068,207.600 102.973 C 207.600 102.673,207.431 102.778,206.200 103.835 M229.381 105.700 L 227.800 107.400 229.500 105.819 C 231.081 104.348,231.384 104.000,231.081 104.000 C 231.016 104.000,230.251 104.765,229.381 105.700 M224.189 110.500 L 221.400 113.400 224.300 110.611 C 225.895 109.077,227.200 107.772,227.200 107.711 C 227.200 107.417,226.780 107.806,224.189 110.500 M187.787 113.100 C 190.124 115.546,190.905 116.002,191.397 115.205 C 191.540 114.974,191.370 114.913,190.988 115.060 C 190.539 115.232,189.564 114.574,187.867 112.955 L 185.400 110.600 187.787 113.100 M213.588 121.100 L 211.000 123.800 213.700 121.212 C 215.185 119.788,216.400 118.573,216.400 118.512 C 216.400 118.217,215.993 118.592,213.588 121.100 M208.800 126.200 C 207.828 127.190,207.123 128.000,207.233 128.000 C 207.343 128.000,208.228 127.190,209.200 126.200 C 210.172 125.210,210.877 124.400,210.767 124.400 C 210.657 124.400,209.772 125.210,208.800 126.200 M170.791 125.988 C 171.257 126.641,171.842 127.302,172.091 127.456 C 172.341 127.611,172.041 127.076,171.425 126.268 C 170.088 124.515,169.584 124.292,170.791 125.988 M170.386 135.100 L 168.200 137.400 170.500 135.214 C 172.637 133.182,172.983 132.800,172.686 132.800 C 172.624 132.800,171.589 133.835,170.386 135.100 M215.344 136.309 C 215.660 136.821,218.000 138.553,218.000 138.275 C 218.000 138.176,217.339 137.591,216.532 136.975 C 215.724 136.359,215.189 136.059,215.344 136.309 M166.773 139.100 C 164.482 141.572,163.449 142.800,163.659 142.800 C 163.769 142.800,164.892 141.630,166.155 140.200 C 168.626 137.403,169.058 136.633,166.773 139.100 M224.000 142.785 C 224.550 143.246,225.360 143.810,225.800 144.038 C 226.346 144.322,226.282 144.187,225.600 143.615 C 225.050 143.154,224.240 142.590,223.800 142.362 C 223.254 142.078,223.318 142.213,224.000 142.785 M193.400 151.600 C 194.706 152.920,195.865 154.000,195.975 154.000 C 196.085 154.000,195.106 152.920,193.800 151.600 C 192.494 150.280,191.335 149.200,191.225 149.200 C 191.115 149.200,192.094 150.280,193.400 151.600 M243.400 155.807 C 243.840 156.166,244.560 156.635,245.000 156.851 L 245.800 157.244 245.000 156.593 C 244.560 156.234,243.840 155.765,243.400 155.549 L 242.600 155.156 243.400 155.807 M199.400 157.200 C 200.259 158.080,201.052 158.800,201.162 158.800 C 201.272 158.800,200.659 158.080,199.800 157.200 C 198.941 156.320,198.148 155.600,198.038 155.600 C 197.928 155.600,198.541 156.320,199.400 157.200 M247.600 169.800 C 245.961 171.450,244.710 172.800,244.820 172.800 C 244.930 172.800,246.361 171.450,248.000 169.800 C 249.639 168.150,250.890 166.800,250.780 166.800 C 250.670 166.800,249.239 168.150,247.600 169.800 M177.753 167.700 C 176.376 170.036,176.286 170.235,176.987 169.400 C 177.800 168.432,178.500 167.200,178.238 167.200 C 178.133 167.200,177.915 167.425,177.753 167.700 M240.386 177.500 L 238.200 179.800 240.500 177.614 C 241.765 176.411,242.800 175.376,242.800 175.314 C 242.800 175.017,242.418 175.363,240.386 177.500 M168.200 183.600 C 167.859 184.260,167.669 184.800,167.779 184.800 C 167.889 184.800,168.259 184.260,168.600 183.600 C 168.941 182.940,169.131 182.400,169.021 182.400 C 168.911 182.400,168.541 182.940,168.200 183.600 M140.783 188.900 C 142.441 190.666,142.800 190.984,142.800 190.683 C 142.800 190.619,141.945 189.764,140.900 188.783 L 139.000 187.000 140.783 188.900 M162.800 193.200 C 162.351 194.080,162.074 194.800,162.184 194.800 C 162.294 194.800,162.751 194.080,163.200 193.200 C 163.649 192.320,163.926 191.600,163.816 191.600 C 163.706 191.600,163.249 192.320,162.800 193.200 M160.800 196.800 C 160.351 197.680,160.074 198.400,160.184 198.400 C 160.294 198.400,160.751 197.680,161.200 196.800 C 161.649 195.920,161.926 195.200,161.816 195.200 C 161.706 195.200,161.249 195.920,160.800 196.800 " stroke="none" fill="#f5dede" fill-rule="evenodd"></path><path id="path7" d="M176.600 102.400 C 177.459 103.280,178.252 104.000,178.362 104.000 C 178.472 104.000,177.859 103.280,177.000 102.400 C 176.141 101.520,175.348 100.800,175.238 100.800 C 175.128 100.800,175.741 101.520,176.600 102.400 M226.175 108.100 L 225.000 109.400 226.300 108.225 C 227.015 107.579,227.600 106.994,227.600 106.925 C 227.600 106.616,227.270 106.888,226.175 108.100 M188.000 113.725 C 188.000 113.794,188.585 114.379,189.300 115.025 L 190.600 116.200 189.425 114.900 C 188.330 113.688,188.000 113.416,188.000 113.725 M210.975 123.300 L 209.800 124.600 211.100 123.425 C 211.815 122.779,212.400 122.194,212.400 122.125 C 212.400 121.816,212.070 122.088,210.975 123.300 M207.375 127.300 L 206.200 128.600 207.500 127.425 C 208.215 126.779,208.800 126.194,208.800 126.125 C 208.800 125.816,208.470 126.088,207.375 127.300 M206.000 129.064 C 206.000 129.282,206.495 129.897,207.100 130.430 L 208.200 131.400 207.200 130.200 C 206.650 129.540,206.155 128.925,206.100 128.833 C 206.045 128.742,206.000 128.845,206.000 129.064 M171.978 133.900 L 170.600 135.400 172.100 134.022 C 172.925 133.263,173.600 132.588,173.600 132.522 C 173.600 132.216,173.262 132.504,171.978 133.900 M197.200 154.525 C 197.200 154.594,197.785 155.179,198.500 155.825 L 199.800 157.000 198.625 155.700 C 197.530 154.488,197.200 154.216,197.200 154.525 M245.381 171.700 L 243.800 173.400 245.500 171.819 C 247.081 170.348,247.384 170.000,247.081 170.000 C 247.016 170.000,246.251 170.765,245.381 171.700 " stroke="none" fill="#f4bcbc" fill-rule="evenodd"></path><path id="path8" d="" stroke="none" fill="#f4dcd4" fill-rule="evenodd"></path></g></svg>