<svg id="svg" version="1.1" xmlns="http://www.w3.org/2000/svg" xmlns:xlink="http://www.w3.org/1999/xlink" width="400" height="400" viewBox="0, 0, 400,400"><g id="svgg"><path id="path0" d="M294.200 51.560 C 265.044 64.452,242.371 82.628,212.600 116.975 C 211.280 118.498,209.561 120.476,208.781 121.372 C 207.541 122.794,202.977 128.349,198.404 134.000 C 194.041 139.393,185.509 150.799,179.613 159.124 C 174.477 166.375,174.424 166.410,172.961 163.523 C 167.450 152.647,157.330 141.300,149.708 137.451 C 138.964 132.025,124.103 136.950,119.350 147.511 C 117.755 151.057,117.791 151.103,122.300 151.265 C 129.026 151.507,132.062 153.518,136.936 160.959 C 141.500 167.925,147.840 180.138,150.869 187.800 C 155.052 198.380,162.987 214.707,167.929 222.900 L 169.798 226.000 171.599 225.994 L 173.400 225.987 175.653 222.494 C 178.300 218.390,185.704 206.380,188.411 201.800 C 189.452 200.040,193.383 193.470,197.147 187.200 C 205.068 174.005,205.729 172.898,210.168 165.400 C 213.379 159.977,218.237 152.272,220.508 148.997 C 226.702 140.070,232.729 131.814,240.192 122.038 C 255.017 102.619,273.642 82.348,298.954 58.085 C 306.263 51.079,306.217 51.164,303.421 49.837 C 301.284 48.823,299.736 49.112,294.200 51.560 " stroke="none" fill="#059c05" fill-rule="evenodd"></path><path id="path1" d="M0.000 200.000 L 0.000 400.000 200.000 400.000 L 400.000 400.000 400.000 200.000 L 400.000 0.000 200.000 0.000 L 0.000 0.000 0.000 200.000 M304.922 49.591 C 307.540 51.252,307.497 51.340,300.912 57.707 C 280.630 77.318,263.603 95.113,253.172 107.601 C 249.926 111.487,244.636 118.075,243.932 119.109 C 243.591 119.608,242.702 120.691,241.956 121.515 C 241.210 122.338,239.926 123.999,239.103 125.206 C 238.280 126.413,237.110 127.980,236.503 128.690 C 235.896 129.399,234.230 131.613,232.800 133.610 C 231.370 135.607,229.295 138.447,228.190 139.920 C 224.408 144.960,212.496 163.180,210.053 167.660 C 209.375 168.903,207.826 171.553,206.610 173.548 C 205.395 175.543,204.400 177.284,204.400 177.416 C 204.400 177.548,203.864 178.435,203.209 179.387 C 202.554 180.339,201.440 182.172,200.734 183.459 C 200.028 184.747,198.629 187.096,197.625 188.679 C 196.621 190.263,195.243 192.513,194.562 193.679 C 191.933 198.181,189.426 202.308,187.748 204.895 C 186.787 206.378,186.000 207.692,186.000 207.817 C 186.000 208.090,181.542 215.321,178.553 219.896 C 177.369 221.709,176.400 223.288,176.400 223.405 C 176.400 226.091,170.488 228.168,168.728 226.100 C 166.382 223.342,155.399 202.050,152.996 195.600 C 152.013 192.962,151.820 192.507,150.217 189.060 C 149.414 187.332,148.425 185.082,148.020 184.060 C 146.979 181.429,141.591 170.625,140.012 168.000 C 139.284 166.790,138.335 165.170,137.903 164.400 C 132.897 155.478,128.677 152.333,121.600 152.250 C 116.649 152.191,116.560 152.083,118.021 147.904 C 119.959 142.360,125.855 137.166,132.400 135.237 C 133.390 134.945,134.722 134.548,135.360 134.353 C 144.105 131.689,157.761 138.946,165.932 150.600 C 169.169 155.218,171.127 158.224,172.801 161.145 C 174.774 164.590,174.542 164.661,178.081 159.526 C 182.969 152.434,184.706 150.019,188.916 144.456 C 193.744 138.080,204.172 124.964,205.181 124.000 C 205.526 123.670,206.321 122.712,206.947 121.870 C 207.574 121.029,208.656 119.769,209.353 119.070 C 210.050 118.372,210.885 117.425,211.210 116.967 C 213.837 113.257,233.280 92.771,240.802 85.787 C 252.408 75.011,257.662 70.998,271.800 62.109 C 277.498 58.526,290.279 51.875,294.800 50.139 C 296.230 49.590,297.670 48.985,298.000 48.794 C 299.450 47.955,302.983 48.362,304.922 49.591 " stroke="none" fill="#fbfbfb" fill-rule="evenodd"></path><path id="path2" d="M301.578 56.300 L 300.200 57.800 301.700 56.422 C 303.096 55.138,303.384 54.800,303.078 54.800 C 303.012 54.800,302.337 55.475,301.578 56.300 M293.387 64.100 L 291.000 66.600 293.500 64.213 C 294.875 62.899,296.000 61.774,296.000 61.713 C 296.000 61.417,295.605 61.778,293.387 64.100 M274.788 82.700 L 272.200 85.400 274.900 82.812 C 277.408 80.407,277.783 80.000,277.488 80.000 C 277.427 80.000,276.212 81.215,274.788 82.700 M243.381 84.100 L 241.800 85.800 243.500 84.219 C 245.081 82.748,245.384 82.400,245.081 82.400 C 245.016 82.400,244.251 83.165,243.381 84.100 M233.800 93.200 C 230.506 96.500,227.900 99.200,228.010 99.200 C 228.120 99.200,230.906 96.500,234.200 93.200 C 237.494 89.900,240.100 87.200,239.990 87.200 C 239.880 87.200,237.094 89.900,233.800 93.200 M222.575 104.900 L 221.400 106.200 222.700 105.025 C 223.415 104.379,224.000 103.794,224.000 103.725 C 224.000 103.416,223.670 103.688,222.575 104.900 M218.575 109.300 L 217.400 110.600 218.700 109.425 C 219.415 108.779,220.000 108.194,220.000 108.125 C 220.000 107.816,219.670 108.088,218.575 109.300 M138.900 134.687 C 139.505 134.778,140.495 134.778,141.100 134.687 C 141.705 134.595,141.210 134.520,140.000 134.520 C 138.790 134.520,138.295 134.595,138.900 134.687 M117.727 151.000 C 117.782 151.543,118.128 151.821,118.804 151.866 C 119.639 151.920,119.658 151.900,118.925 151.741 C 118.443 151.636,117.958 151.247,117.848 150.875 C 117.702 150.389,117.669 150.424,117.727 151.000 " stroke="none" fill="#97d497" fill-rule="evenodd"></path><path id="path3" d="M297.600 59.800 C 296.628 60.790,295.923 61.600,296.033 61.600 C 296.143 61.600,297.028 60.790,298.000 59.800 C 298.972 58.810,299.677 58.000,299.567 58.000 C 299.457 58.000,298.572 58.810,297.600 59.800 M286.800 70.200 C 285.828 71.190,285.123 72.000,285.233 72.000 C 285.343 72.000,286.228 71.190,287.200 70.200 C 288.172 69.210,288.877 68.400,288.767 68.400 C 288.657 68.400,287.772 69.210,286.800 70.200 M281.200 75.800 C 280.228 76.790,279.523 77.600,279.633 77.600 C 279.743 77.600,280.628 76.790,281.600 75.800 C 282.572 74.810,283.277 74.000,283.167 74.000 C 283.057 74.000,282.172 74.810,281.200 75.800 M270.778 86.700 L 269.400 88.200 270.900 86.822 C 272.296 85.538,272.584 85.200,272.278 85.200 C 272.212 85.200,271.537 85.875,270.778 86.700 M225.775 101.700 L 224.600 103.000 225.900 101.825 C 226.615 101.179,227.200 100.594,227.200 100.525 C 227.200 100.216,226.870 100.488,225.775 101.700 M159.400 144.400 C 160.483 145.500,161.460 146.400,161.570 146.400 C 161.680 146.400,160.883 145.500,159.800 144.400 C 158.717 143.300,157.740 142.400,157.630 142.400 C 157.520 142.400,158.317 143.300,159.400 144.400 " stroke="none" fill="#7cc97c" fill-rule="evenodd"></path><path id="path4" d="M299.633 48.945 C 299.725 49.025,300.601 49.192,301.579 49.318 C 302.730 49.465,303.154 49.416,302.779 49.179 C 302.245 48.840,299.258 48.619,299.633 48.945 M304.600 50.539 L 305.800 51.550 302.400 54.808 C 288.301 68.318,281.730 74.805,276.030 80.842 C 271.077 86.088,272.110 85.133,280.230 76.960 C 286.154 70.997,294.410 62.868,298.578 58.894 C 306.673 51.176,306.683 51.160,304.233 49.943 C 303.743 49.699,303.894 49.945,304.600 50.539 M292.400 52.000 C 291.630 52.422,291.180 52.766,291.400 52.766 C 291.620 52.766,292.430 52.422,293.200 52.000 C 293.970 51.578,294.420 51.234,294.200 51.234 C 293.980 51.234,293.170 51.578,292.400 52.000 M289.100 53.429 C 287.549 54.270,287.725 54.561,289.300 53.759 C 290.808 52.993,291.075 52.794,290.567 52.816 C 290.365 52.825,289.705 53.101,289.100 53.429 M281.525 57.355 C 278.174 59.214,278.158 59.515,281.500 57.842 C 283.095 57.043,284.400 56.302,284.400 56.195 C 284.400 55.846,283.836 56.073,281.525 57.355 M275.100 61.021 C 273.395 62.014,272.000 62.922,272.000 63.037 C 272.000 63.267,276.097 61.002,277.634 59.921 C 279.379 58.695,278.255 59.182,275.100 61.021 M267.576 65.615 C 265.505 66.944,263.627 68.227,263.405 68.468 C 263.026 68.878,265.260 67.535,269.700 64.685 C 271.399 63.594,271.869 63.200,271.471 63.200 C 271.401 63.200,269.648 64.287,267.576 65.615 M260.629 70.208 C 259.544 70.958,258.374 71.878,258.029 72.253 C 257.396 72.939,261.295 70.326,262.386 69.333 C 263.363 68.444,262.706 68.771,260.629 70.208 M254.086 75.167 C 248.620 79.567,240.889 86.465,240.838 86.987 C 240.817 87.201,241.835 86.381,243.100 85.165 C 245.953 82.425,250.485 78.486,254.300 75.432 C 256.819 73.415,257.511 72.767,257.100 72.811 C 257.045 72.817,255.689 73.877,254.086 75.167 M232.175 95.300 C 224.433 103.227,212.349 116.423,212.048 117.280 C 211.964 117.517,213.566 115.842,215.606 113.556 C 221.300 107.178,232.808 94.887,235.653 92.145 C 238.899 89.017,240.613 87.200,240.318 87.200 C 240.191 87.200,236.526 90.845,232.175 95.300 M266.837 90.445 C 265.647 91.740,264.837 92.780,265.037 92.755 C 265.236 92.730,266.374 91.650,267.563 90.355 C 268.753 89.060,269.563 88.020,269.363 88.045 C 269.164 88.070,268.026 89.150,266.837 90.445 M260.719 97.300 C 256.986 101.349,250.052 109.524,247.059 113.403 C 244.702 116.459,247.286 113.546,252.333 107.456 C 254.826 104.449,258.663 100.011,260.859 97.594 C 263.055 95.177,264.772 93.200,264.675 93.200 C 264.578 93.200,262.798 95.045,260.719 97.300 M209.211 120.360 C 208.007 121.812,207.338 122.748,207.723 122.441 C 208.671 121.685,211.739 117.999,211.551 117.844 C 211.468 117.775,210.415 118.908,209.211 120.360 M242.177 119.500 C 240.017 122.200,239.876 122.400,240.128 122.400 C 240.252 122.400,241.184 121.320,242.200 120.000 C 244.387 117.158,244.368 116.760,242.177 119.500 M238.144 124.700 C 236.073 127.308,235.869 127.600,236.122 127.600 C 236.244 127.600,237.164 126.520,238.168 125.200 C 240.332 122.355,240.314 121.969,238.144 124.700 M205.949 124.300 C 204.178 126.246,201.386 129.772,201.830 129.501 C 202.314 129.206,207.340 123.200,207.103 123.200 C 207.018 123.200,206.499 123.695,205.949 124.300 M232.272 132.500 C 225.565 141.581,220.691 148.554,221.858 147.400 C 222.080 147.180,223.816 144.806,225.715 142.125 C 227.614 139.444,230.707 135.169,232.590 132.625 C 234.472 130.081,235.918 128.000,235.804 128.000 C 235.689 128.000,234.100 130.025,232.272 132.500 M200.364 131.100 C 198.787 132.860,196.609 135.765,197.090 135.468 C 197.549 135.184,201.713 130.000,201.482 130.000 C 201.409 130.000,200.906 130.495,200.364 131.100 M138.500 135.091 C 139.325 135.178,140.675 135.178,141.500 135.091 C 142.325 135.005,141.650 134.934,140.000 134.934 C 138.350 134.934,137.675 135.005,138.500 135.091 M133.200 135.788 C 130.904 136.446,129.200 137.124,129.200 137.380 C 129.200 137.490,129.695 137.379,130.300 137.134 C 130.905 136.889,132.660 136.367,134.200 135.974 C 135.740 135.580,136.550 135.262,136.000 135.265 C 135.450 135.269,134.190 135.504,133.200 135.788 M143.233 135.347 C 143.325 135.428,144.120 135.604,145.000 135.738 C 146.115 135.907,146.358 135.871,145.800 135.619 C 145.032 135.271,142.890 135.044,143.233 135.347 M147.200 136.288 C 147.530 136.411,148.655 136.940,149.700 137.463 C 150.745 137.986,151.600 138.323,151.600 138.213 C 151.600 137.900,147.686 135.996,147.113 136.032 C 146.779 136.052,146.809 136.141,147.200 136.288 M193.653 139.470 C 192.252 141.359,191.282 142.796,191.498 142.663 C 192.103 142.289,196.836 135.998,196.498 136.017 C 196.334 136.026,195.054 137.580,193.653 139.470 M126.715 138.768 C 124.046 140.461,121.831 142.571,120.428 144.756 C 118.570 147.651,118.957 147.635,120.900 144.736 C 122.389 142.514,125.056 140.111,128.237 138.124 C 128.657 137.861,128.900 137.636,128.778 137.624 C 128.656 137.611,127.728 138.126,126.715 138.768 M152.000 138.511 C 152.000 138.597,152.956 139.325,154.124 140.130 C 156.166 141.536,161.561 146.862,164.325 150.200 C 165.569 151.702,165.595 151.714,164.758 150.400 C 162.911 147.501,152.000 137.333,152.000 138.511 M189.153 145.500 C 186.586 149.030,186.527 149.123,187.651 147.896 C 188.979 146.445,191.319 143.200,191.037 143.200 C 190.921 143.200,190.073 144.235,189.153 145.500 M220.327 149.298 C 219.336 150.686,216.780 154.608,216.221 155.600 C 215.346 157.153,216.908 155.078,219.157 151.700 C 221.498 148.184,222.302 146.534,220.327 149.298 M185.091 150.900 C 180.793 156.785,178.300 160.400,178.539 160.400 C 178.646 160.400,179.719 159.005,180.924 157.300 C 182.128 155.595,183.863 153.165,184.779 151.900 C 185.695 150.635,186.353 149.600,186.242 149.600 C 186.131 149.600,185.613 150.185,185.091 150.900 M118.046 150.700 C 118.008 151.438,118.197 151.590,119.100 151.546 C 120.006 151.501,120.045 151.461,119.325 151.321 C 118.843 151.227,118.369 150.847,118.271 150.475 C 118.145 149.997,118.079 150.062,118.046 150.700 M124.800 151.600 C 126.168 152.038,127.219 152.038,126.200 151.600 C 125.760 151.411,125.040 151.262,124.600 151.268 C 123.957 151.277,123.996 151.343,124.800 151.600 M168.063 155.700 C 170.707 159.699,171.896 161.176,170.397 158.600 C 169.242 156.614,166.020 152.000,165.788 152.000 C 165.694 152.000,166.718 153.665,168.063 155.700 M129.400 153.065 C 129.620 153.274,130.439 153.911,131.220 154.481 C 132.001 155.052,133.431 156.572,134.399 157.859 C 136.663 160.873,137.094 161.317,136.157 159.671 C 135.021 157.677,131.871 154.300,130.346 153.443 C 129.606 153.027,129.180 152.857,129.400 153.065 M213.508 159.700 C 212.633 161.049,211.848 162.656,212.287 162.200 C 212.848 161.617,214.498 158.800,214.279 158.800 C 214.176 158.800,213.829 159.205,213.508 159.700 M176.559 162.900 C 175.729 164.055,174.977 165.090,174.889 165.200 C 174.801 165.310,174.280 164.860,173.732 164.200 L 172.735 163.000 173.378 164.300 C 174.276 166.117,174.799 165.945,176.735 163.200 C 177.666 161.880,178.347 160.800,178.248 160.800 C 178.149 160.800,177.389 161.745,176.559 162.900 M209.675 166.100 C 207.484 169.754,206.293 172.000,206.545 172.000 C 206.636 172.000,207.656 170.335,208.812 168.300 C 209.969 166.265,211.180 164.195,211.504 163.700 C 211.827 163.205,211.993 162.800,211.873 162.800 C 211.752 162.800,210.763 164.285,209.675 166.100 M139.629 165.800 C 140.339 167.120,141.092 168.380,141.303 168.600 C 141.906 169.229,139.741 165.093,139.000 164.200 C 138.636 163.760,138.918 164.480,139.629 165.800 M142.200 170.400 C 142.541 171.060,142.911 171.600,143.021 171.600 C 143.131 171.600,142.941 171.060,142.600 170.400 C 142.259 169.740,141.889 169.200,141.779 169.200 C 141.669 169.200,141.859 169.740,142.200 170.400 M203.560 176.500 C 201.611 179.875,201.282 180.577,202.281 179.234 C 203.290 177.878,205.689 173.600,205.441 173.600 C 205.328 173.600,204.482 174.905,203.560 176.500 M145.638 177.000 C 145.638 177.220,146.161 178.390,146.800 179.600 C 147.439 180.810,147.962 181.620,147.962 181.400 C 147.962 181.180,147.439 180.010,146.800 178.800 C 146.161 177.590,145.638 176.780,145.638 177.000 M196.799 187.900 C 191.456 196.787,191.908 196.000,192.144 196.000 C 192.249 196.000,194.354 192.625,196.822 188.500 C 202.136 179.619,201.687 180.400,201.478 180.400 C 201.385 180.400,199.279 183.775,196.799 187.900 M148.834 183.800 C 148.834 184.020,149.178 184.830,149.600 185.600 C 150.022 186.370,150.366 186.820,150.366 186.600 C 150.366 186.380,150.022 185.570,149.600 184.800 C 149.178 184.030,148.834 183.580,148.834 183.800 M153.665 195.000 C 153.660 195.533,155.936 200.314,155.950 199.800 C 155.956 199.580,155.445 198.320,154.815 197.000 C 154.184 195.680,153.667 194.780,153.665 195.000 M190.717 197.900 C 190.173 198.725,189.514 199.850,189.253 200.400 L 188.777 201.400 189.488 200.434 C 190.507 199.052,192.076 196.400,191.876 196.400 C 191.783 196.400,191.261 197.075,190.717 197.900 M187.800 202.800 C 187.459 203.460,187.269 204.000,187.379 204.000 C 187.489 204.000,187.859 203.460,188.200 202.800 C 188.541 202.140,188.731 201.600,188.621 201.600 C 188.511 201.600,188.141 202.140,187.800 202.800 M157.620 203.658 C 157.584 204.125,160.499 210.034,160.677 209.856 C 160.773 209.761,160.129 208.269,159.246 206.541 C 158.362 204.814,157.631 203.516,157.620 203.658 M182.949 210.685 C 181.657 212.822,180.456 214.802,180.280 215.085 C 180.104 215.368,180.048 215.600,180.156 215.600 C 180.344 215.600,184.167 209.553,185.151 207.700 C 186.349 205.441,185.077 207.167,182.949 210.685 M161.672 212.200 C 161.967 213.084,164.425 217.600,164.612 217.600 C 164.836 217.600,162.681 213.333,161.986 212.400 C 161.740 212.070,161.599 211.980,161.672 212.200 M179.108 216.900 C 178.787 217.395,178.307 218.250,178.040 218.800 C 177.360 220.203,178.594 218.706,179.441 217.100 C 180.139 215.774,179.923 215.644,179.108 216.900 M165.988 220.300 C 166.667 221.565,167.598 223.050,168.055 223.600 C 168.854 224.561,168.853 224.545,168.028 223.200 C 167.556 222.430,166.723 220.945,166.178 219.900 C 165.633 218.855,165.089 218.000,164.970 218.000 C 164.851 218.000,165.309 219.035,165.988 220.300 M174.945 223.583 C 173.438 225.911,173.357 225.968,171.401 226.109 L 169.400 226.252 171.488 226.326 L 173.575 226.400 174.910 224.300 C 176.776 221.366,176.870 221.200,176.668 221.200 C 176.569 221.200,175.794 222.272,174.945 223.583 " stroke="none" fill="#74c474" fill-rule="evenodd"></path><path id="path5" d="M284.175 73.300 L 283.000 74.600 284.300 73.425 C 285.015 72.779,285.600 72.194,285.600 72.125 C 285.600 71.816,285.270 72.088,284.175 73.300 M170.700 226.682 C 171.195 226.778,172.005 226.778,172.500 226.682 C 172.995 226.587,172.590 226.509,171.600 226.509 C 170.610 226.509,170.205 226.587,170.700 226.682 " stroke="none" fill="#bfe4bd" fill-rule="evenodd"></path><path id="path6" d="M297.578 60.300 L 296.200 61.800 297.700 60.422 C 299.096 59.138,299.384 58.800,299.078 58.800 C 299.012 58.800,298.337 59.475,297.578 60.300 M286.981 70.500 L 285.400 72.200 287.100 70.619 C 288.681 69.148,288.984 68.800,288.681 68.800 C 288.616 68.800,287.851 69.565,286.981 70.500 M281.381 76.100 L 279.800 77.800 281.500 76.219 C 283.081 74.748,283.384 74.400,283.081 74.400 C 283.016 74.400,282.251 75.165,281.381 76.100 M270.981 86.900 L 269.400 88.600 271.100 87.019 C 272.681 85.548,272.984 85.200,272.681 85.200 C 272.616 85.200,271.851 85.965,270.981 86.900 M226.575 100.500 L 225.400 101.800 226.700 100.625 C 227.415 99.979,228.000 99.394,228.000 99.325 C 228.000 99.016,227.670 99.288,226.575 100.500 M160.000 144.600 C 160.746 145.370,161.447 146.000,161.557 146.000 C 161.667 146.000,161.146 145.370,160.400 144.600 C 159.654 143.830,158.953 143.200,158.843 143.200 C 158.733 143.200,159.254 143.830,160.000 144.600 " stroke="none" fill="#bce4b4" fill-rule="evenodd"></path><path id="path7" d="M302.181 56.100 L 300.600 57.800 302.300 56.219 C 303.881 54.748,304.184 54.400,303.881 54.400 C 303.816 54.400,303.051 55.165,302.181 56.100 M292.987 64.900 L 290.600 67.400 293.100 65.013 C 294.475 63.699,295.600 62.574,295.600 62.513 C 295.600 62.217,295.205 62.578,292.987 64.900 M275.787 82.100 L 273.400 84.600 275.900 82.213 C 277.275 80.899,278.400 79.774,278.400 79.713 C 278.400 79.417,278.005 79.778,275.787 82.100 M237.188 89.500 L 234.600 92.200 237.300 89.612 C 239.808 87.207,240.183 86.800,239.888 86.800 C 239.827 86.800,238.612 88.015,237.188 89.500 M229.991 96.700 L 226.600 100.200 230.100 96.809 C 232.025 94.944,233.600 93.369,233.600 93.309 C 233.600 93.018,233.141 93.449,229.991 96.700 M222.575 104.500 L 221.400 105.800 222.700 104.625 C 223.415 103.979,224.000 103.394,224.000 103.325 C 224.000 103.016,223.670 103.288,222.575 104.500 M122.581 141.300 L 121.000 143.000 122.700 141.419 C 124.281 139.948,124.584 139.600,124.281 139.600 C 124.216 139.600,123.451 140.365,122.581 141.300 M121.300 151.876 C 121.685 151.976,122.315 151.976,122.700 151.876 C 123.085 151.775,122.770 151.693,122.000 151.693 C 121.230 151.693,120.915 151.775,121.300 151.876 " stroke="none" fill="#ceecce" fill-rule="evenodd"></path><path id="path8" d="M297.590 60.700 L 294.600 63.800 297.789 60.800 C 299.542 59.150,301.057 57.755,301.155 57.700 C 301.253 57.645,301.164 57.600,300.957 57.600 C 300.749 57.600,299.234 58.995,297.590 60.700 M274.700 60.229 C 273.205 61.040,273.296 61.378,274.800 60.600 C 275.460 60.259,276.000 59.894,276.000 59.790 C 276.000 59.532,275.957 59.547,274.700 60.229 M284.395 73.500 L 278.200 79.800 284.500 73.605 C 287.965 70.198,290.800 67.363,290.800 67.305 C 290.800 67.019,290.151 67.647,284.395 73.500 M251.775 76.100 L 250.600 77.400 251.900 76.225 C 252.615 75.579,253.200 74.994,253.200 74.925 C 253.200 74.616,252.870 74.888,251.775 76.100 M246.000 81.000 C 245.028 81.990,244.323 82.800,244.433 82.800 C 244.543 82.800,245.428 81.990,246.400 81.000 C 247.372 80.010,248.077 79.200,247.967 79.200 C 247.857 79.200,246.972 80.010,246.000 81.000 M241.381 85.300 L 239.800 87.000 241.500 85.419 C 243.081 83.948,243.384 83.600,243.081 83.600 C 243.016 83.600,242.251 84.365,241.381 85.300 M271.588 86.700 L 269.000 89.400 271.700 86.812 C 274.208 84.407,274.583 84.000,274.288 84.000 C 274.227 84.000,273.012 85.215,271.588 86.700 M266.587 92.100 L 264.200 94.600 266.700 92.213 C 268.075 90.899,269.200 89.774,269.200 89.713 C 269.200 89.417,268.805 89.778,266.587 92.100 M234.175 92.100 L 233.000 93.400 234.300 92.225 C 235.015 91.579,235.600 90.994,235.600 90.925 C 235.600 90.616,235.270 90.888,234.175 92.100 M262.185 96.900 L 260.200 99.000 262.300 97.015 C 263.455 95.923,264.400 94.978,264.400 94.915 C 264.400 94.617,264.029 94.949,262.185 96.900 M224.187 102.500 L 221.800 105.000 224.300 102.613 C 225.675 101.299,226.800 100.174,226.800 100.113 C 226.800 99.817,226.405 100.178,224.187 102.500 M256.581 103.300 L 255.000 105.000 256.700 103.419 C 257.635 102.549,258.400 101.784,258.400 101.719 C 258.400 101.416,258.052 101.719,256.581 103.300 M219.186 107.900 L 217.000 110.200 219.300 108.014 C 221.437 105.982,221.783 105.600,221.486 105.600 C 221.424 105.600,220.389 106.635,219.186 107.900 M212.575 115.300 L 211.400 116.600 212.700 115.425 C 213.415 114.779,214.000 114.194,214.000 114.125 C 214.000 113.816,213.670 114.088,212.575 115.300 M242.608 120.300 C 241.749 121.345,241.460 121.840,241.966 121.400 C 242.861 120.622,244.598 118.400,244.312 118.400 C 244.234 118.400,243.467 119.255,242.608 120.300 M208.186 120.178 C 207.974 120.475,207.383 121.276,206.873 121.959 C 206.363 122.641,206.018 123.200,206.106 123.200 C 206.389 123.200,208.886 119.953,208.726 119.793 C 208.641 119.708,208.398 119.881,208.186 120.178 M136.700 134.282 C 137.195 134.378,138.005 134.378,138.500 134.282 C 138.995 134.187,138.590 134.109,137.600 134.109 C 136.610 134.109,136.205 134.187,136.700 134.282 M141.505 134.283 C 142.002 134.379,142.722 134.375,143.105 134.275 C 143.487 134.175,143.080 134.096,142.200 134.101 C 141.320 134.105,141.007 134.187,141.505 134.283 M153.600 138.511 C 153.600 138.587,154.185 139.078,154.900 139.601 C 155.704 140.190,155.984 140.287,155.633 139.855 C 155.100 139.199,153.600 138.207,153.600 138.511 M159.800 144.000 C 161.328 145.540,162.669 146.800,162.779 146.800 C 162.889 146.800,161.728 145.540,160.200 144.000 C 158.672 142.460,157.331 141.200,157.221 141.200 C 157.111 141.200,158.272 142.460,159.800 144.000 M117.372 149.768 C 116.882 151.722,117.254 152.197,119.306 152.237 L 121.205 152.274 119.353 152.113 L 117.501 151.952 117.712 150.376 C 117.947 148.624,117.748 148.269,117.372 149.768 M185.144 149.500 C 183.993 150.889,183.506 151.600,183.704 151.600 C 183.814 151.600,184.386 150.970,184.973 150.200 C 186.063 148.771,186.195 148.232,185.144 149.500 M132.168 156.400 C 134.264 158.843,134.685 159.226,133.704 157.800 C 133.250 157.140,132.371 156.150,131.750 155.600 C 131.001 154.936,131.141 155.204,132.168 156.400 M214.600 159.600 C 214.259 160.260,214.069 160.800,214.179 160.800 C 214.289 160.800,214.659 160.260,215.000 159.600 C 215.341 158.940,215.531 158.400,215.421 158.400 C 215.311 158.400,214.941 158.940,214.600 159.600 M148.428 185.000 C 148.428 185.220,148.686 185.850,149.000 186.400 C 149.314 186.950,149.572 187.220,149.572 187.000 C 149.572 186.780,149.314 186.150,149.000 185.600 C 148.686 185.050,148.428 184.780,148.428 185.000 M194.600 193.200 C 194.259 193.860,194.069 194.400,194.179 194.400 C 194.289 194.400,194.659 193.860,195.000 193.200 C 195.341 192.540,195.531 192.000,195.421 192.000 C 195.311 192.000,194.941 192.540,194.600 193.200 M183.353 211.700 C 181.976 214.036,181.886 214.235,182.587 213.400 C 183.400 212.432,184.100 211.200,183.838 211.200 C 183.733 211.200,183.515 211.425,183.353 211.700 " stroke="none" fill="#ddf2dc" fill-rule="evenodd"></path></g></svg>